<svg width="20" height="52" viewBox="0 0 20 52" fill="none" xmlns="http://www.w3.org/2000/svg">
<path d="M8.34447 29.0215C9.90228 29.0215 12.0035 29.0215 14.6482 29.0215C17.2747 29.0215 19.0589 29.0215 20.0009 29.0215V51.0572L0.981115 51.0572L0.981115 31.168L5.38283 29.2388L5.38283 45.5415H8.34447V29.0215ZM15.5448 34.5372H12.6375V45.5415H15.5448V34.5372ZM20.0009 23.188V27.5353H16.2241V23.188H20.0009ZM5.73605 0.140334C5.79039 0.140334 6.58741 0.140334 8.1271 0.140334C9.6668 0.140334 11.2518 0.140334 12.882 0.140334C14.4942 0.140334 16.0429 0.140334 17.5283 0.140334C18.9955 0.140334 19.8197 0.140334 20.0009 0.140334V21.5511H0.981115L0.981115 2.23251L5.73605 0.140334ZM15.2459 5.62889H5.73605V16.0626H15.2459L15.2459 5.62889Z" fill="#EBEBEB"/>
</svg>
